<?xml version="1.0" encoding="utf-8"?>
<!-- Generator: Adobe Illustrator 27.9.6, SVG Export Plug-In . SVG Version: 9.03 Build 54986)  -->
<svg version="1.1" xmlns="http://www.w3.org/2000/svg" xmlns:xlink="http://www.w3.org/1999/xlink" x="0px" y="0px"
	 viewBox="0 0 251 101" style="enable-background:new 0 0 251 101;" xml:space="preserve">
<style type="text/css">
	.st0{fill:#FFFFFF;}
	.st1{fill:#B31942;}
	.st2{fill:#0A3161;}
</style>
<g id="oval">
	<ellipse class="st0" cx="125.5" cy="50.5" rx="125" ry="50"/>
</g>
<g id="Layer_1">
	<g>
		<path class="st1" d="M18.94,63.64c2.03,0,4.02-0.33,5.96-1c0.99-0.34,1.92-0.73,2.8-1.17c1.34-0.68,2.96-0.1,3.56,1.28l0,0
			c0.56,1.27,0.02,2.73-1.2,3.38c-1.37,0.73-2.85,1.36-4.44,1.88c-2.46,0.8-4.97,1.2-7.53,1.2c-3.85,0-6.83-1-8.94-2.99
			s-3.16-4.79-3.16-8.41c0-4.2,0.73-7.86,2.2-10.97c1.46-3.12,3.52-5.54,6.17-7.27s5.75-2.59,9.3-2.59c3.2,0,5.75,0.51,7.65,1.52
			c1.24,0.66,2.28,1.59,3.12,2.78c0.79,1.11,0.52,2.66-0.55,3.51l-0.77,0.61c-1.06,0.84-2.57,0.71-3.53-0.26
			c-0.62-0.64-1.29-1.15-2-1.53c-1.31-0.71-2.89-1.07-4.75-1.07c-2.11,0-3.96,0.61-5.55,1.82c-1.59,1.21-2.82,2.91-3.69,5.1
			c-0.87,2.19-1.31,4.76-1.33,7.71c0.02,2.05,0.61,3.64,1.77,4.78C15.2,63.08,16.83,63.64,18.94,63.64z"/>
		<path class="st1" d="M43.93,82.1h-6.3l7.82-44.53h5.24l-0.21,7.35L43.93,82.1z M48.5,69.21c-1.43,0-2.84-0.05-4.25-0.16
			s-2.82-0.26-4.25-0.45l2.93-5.68c1.27,0.49,3.34,0.73,6.21,0.73c2.95,0,5.6-0.7,7.94-2.11s4.19-3.33,5.55-5.76
			s2.04-5.18,2.04-8.25c0-1.58-0.36-2.81-1.08-3.68c-0.72-0.87-1.75-1.3-3.08-1.3c-1.62,0-3.25,0.51-4.89,1.52
			c-1.64,1.02-3.12,2.61-4.42,4.78s-2.28,4.97-2.9,8.41l1.14-12.63h2.55l-1.67,2.23c0.7-3.14,2.15-5.58,4.34-7.29
			c2.19-1.72,4.92-2.58,8.2-2.58c2.56,0,4.55,0.82,5.96,2.45c1.42,1.63,2.12,3.94,2.12,6.93c0,3.26-0.56,6.28-1.68,9.05
			c-1.12,2.77-2.7,5.2-4.73,7.27c-2.03,2.07-4.41,3.68-7.13,4.82S51.71,69.21,48.5,69.21z"/>
		<path class="st1" d="M84.28,37.57l-0.38,8l-4.07,23.06h-6.3L79,37.57H84.28z M85.18,68.62l4.28-24.26c0.29-1.6-0.21-2.4-1.52-2.4
			c-1.21,0-2.29,1.05-3.22,3.16s-1.71,5.09-2.31,8.94l0.7-11.78h1.49c0.49-1.91,1.24-3.28,2.24-4.09c1.01-0.81,2.22-1.22,3.65-1.22
			c1.82,0,3.09,0.65,3.82,1.96c0.73,1.31,0.84,3.39,0.34,6.24l-4.19,23.44H85.18z M106.25,45.18l-4.13,23.44h-6.3l4.28-24.26
			c0.14-0.76,0.09-1.35-0.15-1.77c-0.23-0.42-0.66-0.63-1.29-0.63c-1.29,0-2.4,1.05-3.33,3.16s-1.68,5.09-2.27,8.94l0.41-11.78h1.96
			c0.53-1.93,1.34-3.3,2.45-4.1c1.1-0.8,2.44-1.2,4-1.2C105.75,36.98,107.21,39.72,106.25,45.18z"/>
		<path class="st2" d="M122.51,69.21c-2.54,0-4.87-0.16-7-0.47c-2.13-0.31-3.87-0.74-5.21-1.29l1.7-5.62
			c2.27,0.57,4.4,1.01,6.4,1.33s3.71,0.48,5.11,0.48c2.56,0,4.55-0.34,5.96-1.01s2.12-1.63,2.12-2.86c0-0.6-0.24-1.17-0.72-1.68
			c-0.48-0.52-1.17-0.92-2.07-1.22l-8.79-2.96c-1.93-0.64-3.42-1.55-4.45-2.72s-1.55-2.49-1.55-3.96c0-3.26,1.38-5.79,4.15-7.57
			s6.67-2.68,11.73-2.68c1.78,0,3.6,0.08,5.46,0.23c1.87,0.16,3.62,0.37,5.26,0.64l-1.58,5.39c-1.84-0.21-3.63-0.39-5.38-0.51
			c-1.75-0.13-3.3-0.19-4.64-0.19c-2.77,0-4.92,0.36-6.43,1.07c-1.51,0.71-2.27,1.72-2.27,3.03c0,0.47,0.19,0.89,0.56,1.27
			s0.92,0.68,1.64,0.89l8.94,2.84c2.07,0.66,3.66,1.65,4.76,2.94c1.1,1.3,1.66,2.79,1.66,4.47c0,3.22-1.34,5.72-4.01,7.49
			C131.17,68.33,127.39,69.21,122.51,69.21z"/>
		<path class="st2" d="M157.99,69.21c-3.46,0-6.16-0.99-8.1-2.97c-1.94-1.98-2.92-4.74-2.92-8.28c0-6.6,1.47-11.75,4.42-15.44
			s7.04-5.54,12.28-5.54c3.46,0,6.16,1.02,8.1,3.05c1.94,2.03,2.92,4.86,2.92,8.5c0,6.5-1.47,11.58-4.41,15.22
			C167.34,67.39,163.24,69.21,157.99,69.21z M159.07,63.67c2.93,0,5.22-1.23,6.87-3.68c1.65-2.45,2.48-5.85,2.48-10.21
			c0-2.27-0.49-4.04-1.46-5.32c-0.98-1.28-2.35-1.92-4.13-1.92c-3.01,0-5.36,1.22-7.05,3.66c-1.69,2.44-2.53,5.84-2.53,10.2
			c0,2.29,0.51,4.07,1.54,5.35C155.8,63.03,157.23,63.67,159.07,63.67z"/>
		<path class="st2" d="M176.79,82.48l-0.26-5.57l2.14-0.23c2.5-0.27,4.53-0.95,6.09-2.02s2.75-2.58,3.56-4.51s1.32-4.32,1.54-7.15
			l2.17-19.86c0.35-4.35,1.23-7.93,2.62-10.74c1.4-2.8,3.47-4.89,6.21-6.25c2.74-1.37,6.29-2.05,10.65-2.05
			c1.7,0,3.32,0.2,4.86,0.59l-1.58,5.39c-0.9-0.16-1.69-0.26-2.39-0.32s-1.37-0.09-2.04-0.09c-3.98,0-6.88,1.07-8.69,3.21
			s-2.91,5.46-3.3,9.98l-2.37,21.04c-0.31,3.73-1.09,6.88-2.34,9.46s-3.08,4.6-5.48,6.06s-5.51,2.41-9.32,2.84L176.79,82.48z
			 M181.01,49.87l0.97-5.45h28.71l-0.97,5.45H181.01z"/>
		<path class="st2" d="M217.43,43.02l0.97-5.45h27.36l-0.97,5.45H217.43z M232.61,69.21c-3.59,0-6.24-0.77-7.92-2.3
			c-1.69-1.53-2.53-3.92-2.53-7.16c0-0.82,0.04-1.61,0.12-2.36c0.08-0.75,0.2-1.6,0.37-2.53s0.37-2.09,0.6-3.46l4.07-23.2h6.3
			l-4.07,23.2c-0.33,1.95-0.6,3.46-0.81,4.51s-0.31,2.14-0.31,3.25c0,1.54,0.43,2.68,1.29,3.4c0.86,0.72,2.21,1.08,4.04,1.08
			c1.43,0,2.68-0.12,3.75-0.35s2.35-0.65,3.84-1.26l1.14,5.01c-1.41,0.61-2.9,1.12-4.47,1.54S234.64,69.21,232.61,69.21z"/>
	</g>
</g>
</svg>
